#!OML:ASF H:\Terrain\Patient Classification 1\PLAYGROUND\JustinFriday\JustinFriday.ASF
:FULLY-SPECIFIED
:DEGREES
2040
root -14.3115 27.7589 -4.09923 323.688 -5.37843 2.40355
lowerback 37.5893 -0.449214 3.35819
upperback 17.8364 0.513834 2.52171
thorax 1.07394 0.314946 0.737637
lowerneck 22.0671 -4.48991 -5.72115
upperneck 14.5529 -7.16149 3.39861
head 1.50122 -3.81683 2.47238
rclavicle 2.94201e-014 2.06736e-014
rhumerus 63.7751 -34.6226 -72.5551
rradius 100.474
rwrist 6.10741
rhand -21.8891 -5.50736
rfingers 7.12502
rthumb 4.5159 -35.4392
lclavicle 2.94201e-014 2.06736e-014
lhumerus 53.2148 27.6305 78.0192
lradius 117.633
lwrist -14.7079
lhand -16.6229 -5.97974
lfingers 7.12502
lthumb 9.59917 23.7816
rfemur -31.4187 0.736011 11.9836
rtibia 39.9204
rfoot 14.8464 -6.92336
rtoes 13.1718
lfemur -34.9012 5.40854 -11.3265
ltibia 38.1674
lfoot 14.7276 -0.874086
ltoes 7.53346
2041
root -14.3152 27.7563 -4.12125 323.159 -4.83492 2.9875
lowerback 37.6721 -0.26111 2.49142
upperback 18.3489 0.444646 2.33764
thorax 1.59584 0.235364 1.01949
lowerneck 20.1595 -4.72637 -5.1422
upperneck 14.7182 -7.28451 3.27103
head 1.8199 -3.83612 2.26285
rclavicle 1.55052e-014 1.43125e-014
rhumerus 64.1882 -34.605 -72.817
rradius 99.9627
rwrist 5.87541
rhand -26.3668 -2.89079
rfingers 7.12502
rthumb 0.19151 -32.8704
lclavicle 1.55052e-014 1.43125e-014
lhumerus 54.2365 27.321 78.1696
lradius 117.123
lwrist -15.1618
lhand -22.8285 -8.0043
lfingers 7.12502
lthumb 3.60874 21.9449
rfemur -31.3779 0.587871 11.1833
rtibia 40.0843
rfoot 14.4851 -6.7766
rtoes 14.0478
lfemur -34.2527 4.88592 -12.086
ltibia 37.0433
lfoot 15.2177 -0.120885
ltoes 7.87759
2042
root -14.3059 27.7432 -4.13412 322.403 -5.8688 2.02242
lowerback 38.3426 -0.511385 3.84185
upperback 18.0882 0.622611 2.73737
thorax 1.13338 0.388465 0.685795
lowerneck 21.3753 -4.49304 -6.28545
upperneck 13.7938 -7.27993 4.06762
head 1.3946 -3.90016 2.80092
rclavicle -4.37326e-015 -1.11319e-014
rhumerus 63.2953 -34.5275 -71.8074
rradius 99.6576
rwrist 5.74214
rhand -22.2742 -5.10649
rfingers 7.12502
rthumb 4.14401 -35.0459
lclavicle -4.37326e-015 -1.11319e-014
lhumerus 53.4372 27.2704 78.0946
lradius 116.94
lwrist -15.0207
lhand -16.3008 -5.90425
lfingers 7.12502
lthumb 9.90999 23.8425
rfemur -30.9492 1.08702 12.7974
rtibia 40.2464
rfoot 14.1499 -6.83759
rtoes 13.0498
lfemur -33.5516 5.49035 -10.5248
ltibia 36.4372
lfoot 15.8778 -0.243241
ltoes 8.58556
2043
root -14.2831 27.7374 -4.13445 322.738 -3.28774 4.87906
lowerback 37.544 -0.0110939 0.66143
upperback 17.9922 0.173994 1.96986
thorax 1.21899 -0.00650205 1.66511
lowerneck 21.1607 -4.46977 -6.32986
upperneck 13.4921 -7.25011 4.13747
head 1.32413 -3.8855 2.82963
rclavicle 9.93923e-015 -1.59028e-015
rhumerus 63.5714 -33.8822 -71.9547
rradius 99.1424
rwrist 6.33175
rhand -20.7568 -5.66534
rfingers 7.12502
rthumb 5.60912 -35.5711
lclavicle 9.93923e-015 -1.59028e-015
lhumerus 53.7511 26.8648 78.1975
lradius 116.411
lwrist -15.3557
lhand -15.8469 -5.77196
lfingers 7.12502
lthumb 10.3478 23.9534
rfemur -32.0145 -0.645244 8.58623
rtibia 40.1811
rfoot 14.7434 -5.47195
rtoes 12.0059
lfemur -34.2951 4.75023 -14.9915
ltibia 36.0848
lfoot 15.5385 -0.378541
ltoes 8.07324
2044
root -14.2827 27.7259 -4.12795 322.963 -1.21534 7.38401
lowerback 36.9898 0.542949 -2.2386
upperback 18.0417 -0.0742314 1.22685
thorax 1.46163 -0.291926 2.474
lowerneck 19.9699 -4.57152 -5.86055
upperneck 13.9932 -7.24757 3.97954
head 1.653 -3.85476 2.63877
rclavicle -1.19271e-015 -2.8625e-014
rhumerus 63.5431 -33.8414 -72.0703
rradius 98.6192
rwrist 6.67234
rhand -22.7126 -4.46986
rfingers 7.12502
rthumb 3.72066 -34.4171
lclavicle -1.19271e-015 -2.8625e-014
lhumerus 53.7311 26.8264 77.9782
lradius 116.211
lwrist -15.2122
lhand -15.5032 -5.6912
lfingers 7.12502
lthumb 10.6794 24.0174
rfemur -32.8758 -1.64597 5.00942
rtibia 40.1747
rfoot 15.0008 -5.38298
rtoes 14.1952
lfemur -34.7453 4.29466 -18.6823
ltibia 35.8907
lfoot 14.9414 -1.33485
ltoes 2.63545
2045
root -14.2977 27.7062 -4.14361 321.604 -5.90357 2.56783
lowerback 37.8218 -0.332475 3.34561
upperback 17.2065 0.692486 2.6695
thorax 0.30444 0.380862 0.83794
lowerneck 24.8975 -4.07234 -6.75803
upperneck 12.9195 -7.0408 4.56352
head 0.598365 -3.83657 2.94259
rclavicle -3.18055e-015 2.70347e-014
rhumerus 60.3496 -32.9219 -69.8503
rradius 97.889
rwrist 7.02193
rhand -27.3514 -2.2112
rfingers 7.12502
rthumb -0.759453 -32.1896
lclavicle -3.18055e-015 2.70347e-014
lhumerus 50.262 26.3469 76.4784
lradius 115.878
lwrist -14.9384
lhand -15.7131 -5.81384
lfingers 7.12502
lthumb 10.4769 23.9051
rfemur -31.2105 1.07239 12.5486
rtibia 39.6864
rfoot 14.6982 -6.68774
rtoes 9.85543
lfemur -33.5875 5.6082 -10.9037
ltibia 36.1162
lfoot 14.9078 -1.91309
ltoes 2.77315
2046
root -14.2972 27.6897 -4.14832 321.555 -6.07841 2.25947
lowerback 38.2613 -0.427299 3.66413
upperback 17.8393 0.665282 2.58948
thorax 0.879243 0.400689 0.60595
lowerneck 20.2616 -4.59845 -5.66914
upperneck 14.502 -7.25216 3.59536
head 1.76274 -3.85353 2.47379
rclavicle 9.14409e-015 1.27222e-014
rhumerus 62.3314 -32.9471 -71.2355
rradius 97.3902
rwrist 7.34432
rhand -21.0564 -4.8494
rfingers 7.12502
rthumb 5.31988 -34.7626
lclavicle 9.14409e-015 1.27222e-014
lhumerus 52.0881 26.3771 76.7927
lradius 115.225
lwrist -15.1838
lhand -15.9672 -6.09555
lfingers 7.12502
lthumb 10.2318 23.6356
rfemur -31.3653 0.912 13.0525
rtibia 39.4096
rfoot 14.5687 -6.39329
rtoes 11.1794
lfemur -33.9618 5.72444 -10.4833
ltibia 36.1292
lfoot 14.7436 -1.58454
ltoes 4.11625
